<?xml version="1.0" standalone="no"?>
<!DOCTYPE svg PUBLIC "-//W3C//DTD SVG 20010904//EN"
 "http://www.w3.org/TR/2001/REC-SVG-20010904/DTD/svg10.dtd">
<svg version="1.0" xmlns="http://www.w3.org/2000/svg"
 width="474.000000pt" height="474.000000pt" viewBox="0 0 474.000000 474.000000"
 preserveAspectRatio="xMidYMid meet">

<g transform="translate(0.000000,474.000000) scale(0.100000,-0.100000)"
fill="#000000" stroke="none">
<path d="M0 4715 c0 -14 5 -25 10 -25 6 0 10 11 10 25 0 14 -4 25 -10 25 -5 0
-10 -11 -10 -25z"/>
<path d="M40 4720 c0 -11 -9 -29 -20 -40 -20 -20 -27 -50 -12 -50 4 0 23 16
42 35 30 31 40 35 85 35 47 0 75 12 75 32 0 4 -38 8 -85 8 -78 0 -85 -2 -85
-20z"/>
<path d="M219 4728 c-1 -7 -50 -58 -109 -113 -106 -99 -108 -100 -109 -147 -1
-32 3 -48 12 -48 9 0 9 -2 -1 -9 -9 -5 -12 -26 -10 -67 l3 -59 125 122 c102
100 126 128 125 150 0 20 7 31 23 38 12 5 25 17 27 26 3 9 28 35 55 58 28 23
50 46 50 52 0 5 -20 9 -44 9 -38 0 -46 -4 -51 -22 -6 -21 -222 -248 -235 -248
-3 0 45 51 107 114 127 128 140 156 73 156 -25 0 -40 -5 -41 -12z m-149 -273
c0 -2 -10 -10 -22 -16 -21 -11 -22 -11 -9 4 13 16 31 23 31 12z"/>
<path d="M367 4673 c-55 -60 -58 -66 -43 -82 32 -35 9 -76 -38 -69 -20 2 -47
-20 -146 -117 -66 -66 -125 -121 -130 -123 -11 -4 -14 -82 -3 -82 4 0 17 10
30 22 13 12 23 17 23 11 0 -6 -13 -23 -30 -36 -25 -22 -30 -33 -30 -72 0 -26
4 -45 9 -43 6 2 40 32 78 68 242 233 251 240 279 240 22 0 46 17 101 72 l73
72 0 103 0 103 -57 -1 -58 -1 -58 -65z m-111 -249 c-66 -59 -72 -56 -11 6 27
27 51 47 54 44 3 -3 -16 -25 -43 -50z"/>
<path d="M550 4632 l0 -108 -74 -73 c-50 -48 -84 -73 -103 -75 -15 -2 -31 -4
-35 -5 -4 0 -77 -68 -163 -151 -86 -82 -161 -150 -166 -150 -5 0 -9 -34 -9
-75 0 -69 1 -74 19 -67 10 4 148 133 306 287 158 154 294 284 301 288 20 12
19 120 -1 137 -34 28 6 87 43 64 24 -16 27 -45 7 -60 -13 -10 -18 -30 -20 -71
l-3 -58 -100 -95 c-55 -52 -191 -184 -302 -293 -111 -109 -212 -203 -226 -209
-23 -11 -24 -16 -24 -100 0 -48 3 -88 6 -88 4 0 101 94 218 208 116 115 284
278 374 363 90 85 165 164 168 176 3 12 4 65 2 118 -2 78 -6 99 -20 109 -10 7
-18 18 -18 25 0 7 -29 11 -90 11 l-90 0 0 -108z"/>
<path d="M796 4715 c-13 -20 -16 -54 -16 -187 l0 -163 -257 -254 c-142 -140
-318 -313 -390 -384 -126 -123 -133 -132 -133 -169 0 -41 14 -47 34 -15 8 12
5 21 -9 38 l-20 22 23 -12 c30 -16 27 -62 -5 -76 -14 -6 -23 -18 -23 -32 0
-20 5 -23 36 -23 33 0 49 12 168 128 339 330 405 393 496 475 57 52 -123 -127
-402 -401 -210 -205 -218 -212 -258 -212 -29 0 -40 -4 -40 -15 0 -11 12 -15
53 -15 l52 1 157 152 c369 358 538 519 538 512 0 -3 -78 -82 -172 -173 -95
-92 -250 -242 -344 -334 l-172 -168 -56 0 c-56 0 -56 0 -56 -30 0 -16 5 -30
10 -30 6 0 10 -9 10 -20 0 -11 -4 -20 -10 -20 -14 0 -12 -37 3 -43 10 -4 10
-6 0 -6 -7 -1 -13 -12 -13 -26 0 -20 5 -25 25 -25 32 0 65 -36 65 -71 0 -30
-40 -69 -71 -69 -17 0 -19 -9 -19 -85 0 -47 4 -85 8 -85 4 0 27 19 50 41 l41
41 38 -30 c21 -17 96 -90 168 -163 l130 -133 -165 156 -165 156 -51 -46 c-31
-28 -52 -56 -53 -69 -1 -29 4 -29 41 2 52 44 72 36 191 -76 l107 -101 -2 -46
-1 -47 -4 45 c-3 35 -12 53 -41 83 -42 43 -47 45 -49 16 -3 -42 -20 -49 -117
-49 -132 -1 -126 9 -126 -204 l0 -177 30 -26 30 -25 0 -203 0 -203 -30 -25
c-29 -25 -30 -28 -30 -111 0 -47 2 -86 5 -86 3 0 23 11 45 25 34 22 40 31 42
63 l1 37 4 -34 c5 -38 -20 -71 -68 -91 -27 -12 -29 -16 -29 -71 0 -33 3 -59 7
-59 10 0 126 112 140 135 9 15 12 16 13 5 0 -16 -134 -150 -151 -150 -5 0 -9
-27 -9 -60 0 -51 3 -60 18 -60 9 0 78 61 152 135 l135 135 5 213 6 212 2 -214
2 -214 -145 -140 c-144 -138 -145 -140 -126 -158 11 -11 24 -19 28 -19 4 0 74
66 155 147 82 81 148 143 148 138 0 -6 -67 -74 -149 -153 -159 -152 -178 -180
-142 -216 l21 -21 190 190 190 190 3 420 2 420 3 -422 2 -422 -192 -191 -193
-190 33 -30 c18 -17 39 -30 48 -30 15 0 358 326 378 358 4 8 8 58 7 110 -1 53
0 94 3 91 3 -3 6 -49 7 -104 l1 -98 -103 -102 c-193 -188 -277 -265 -293 -265
-8 0 -31 14 -51 31 l-36 32 -29 -28 c-17 -16 -30 -24 -30 -17 0 6 11 19 25 28
32 21 31 25 -5 49 -31 21 -49 48 -26 39 7 -3 16 3 20 12 8 21 -20 54 -46 54
-17 0 -18 -14 -18 -265 0 -146 3 -265 7 -265 4 0 24 17 45 37 21 20 40 34 43
31 3 -3 -17 -26 -45 -52 l-50 -47 0 -69 c0 -39 3 -70 7 -70 4 0 67 60 140 132
129 129 133 134 133 176 0 38 -2 42 -18 33 -29 -15 -60 -2 -71 30 -9 25 -7 33
9 49 25 25 52 25 73 2 13 -14 17 -38 17 -92 l0 -73 -88 -86 c-48 -47 -113
-110 -145 -139 -49 -45 -57 -58 -57 -88 0 -20 4 -34 9 -32 4 2 88 80 185 174
174 168 176 171 176 213 0 38 6 49 57 102 35 37 64 59 77 58 16 0 17 -2 6 -7
-31 -14 -102 -77 -114 -102 -7 -14 -13 -41 -14 -60 -2 -31 -23 -56 -193 -225
-171 -171 -190 -193 -187 -220 3 -29 12 -21 219 183 167 165 221 212 240 211
20 -1 21 -2 4 -6 -11 -3 -57 -41 -102 -86 l-83 -81 23 -25 c19 -22 19 -23 2
-11 -11 8 -23 19 -27 24 -3 5 -63 -46 -133 -115 -69 -68 -130 -125 -136 -127
-5 -2 -9 -44 -9 -93 l0 -89 83 0 82 1 310 301 310 301 -301 -301 c-166 -166
-314 -306 -328 -312 -15 -5 -56 -10 -92 -10 l-64 0 0 -35 c0 -28 4 -35 19 -35
11 0 23 -9 26 -20 7 -23 -10 -50 -31 -50 -9 0 -14 -12 -14 -35 0 -19 2 -35 4
-35 6 0 148 135 507 482 180 175 333 318 340 318 8 0 4 -7 -8 -15 -12 -9 -127
-118 -255 -243 -128 -126 -273 -266 -323 -313 -49 -46 -121 -114 -160 -151
l-70 -68 57 0 c45 0 63 5 78 20 11 11 20 16 20 12 0 -24 -39 -41 -99 -44 -40
-2 -66 -8 -69 -15 -3 -10 22 -13 103 -13 106 0 106 0 132 30 14 17 28 28 31
25 3 -3 -4 -12 -16 -21 -29 -20 -28 -34 3 -34 16 0 25 6 25 15 0 9 18 35 41
60 35 38 39 46 29 65 -9 17 -9 25 0 34 6 6 10 7 9 1 -2 -5 1 -20 5 -33 6 -18
0 -31 -28 -62 -20 -22 -36 -49 -36 -60 0 -18 7 -20 78 -20 66 0 79 3 89 20 24
37 -12 73 -42 43 -9 -8 -14 -22 -11 -30 3 -8 1 -11 -4 -8 -23 14 4 65 35 65
26 0 46 -31 40 -61 -6 -26 -4 -29 19 -29 15 0 26 6 26 13 0 7 25 35 56 61 48
42 55 53 52 77 -5 32 16 47 38 28 17 -14 19 -39 3 -39 -13 0 -139 -119 -139
-132 0 -4 38 -8 84 -8 65 0 85 3 90 15 7 20 66 20 66 0 0 -13 22 -15 140 -15
l140 0 0 41 c0 35 -7 49 -40 85 -39 42 -40 45 -38 111 l1 68 6 -72 c6 -67 9
-75 41 -102 30 -26 43 -30 96 -31 56 0 62 -2 95 -37 l34 -37 -38 32 c-32 27
-45 32 -92 32 l-55 0 0 -45 0 -45 155 0 c130 0 155 2 155 15 0 21 45 48 69 40
12 -3 24 -17 27 -31 5 -21 12 -24 50 -24 24 0 44 3 44 8 0 4 -39 43 -87 88
l-86 80 -3 65 -2 64 6 -57 c7 -55 10 -60 97 -151 l90 -94 92 -2 93 -1 32 34
c18 18 122 118 231 221 188 179 197 188 177 202 -22 16 -27 52 -8 71 31 31 93
-3 81 -46 -3 -12 -9 -22 -13 -22 -8 0 0 7 -273 -254 -108 -104 -197 -193 -197
-198 0 -4 15 -8 34 -8 25 0 35 5 39 20 3 11 18 26 35 33 33 14 472 433 472
451 0 7 46 57 103 112 56 54 192 187 302 294 l200 195 5 150 6 150 2 -150 2
-151 -112 -110 c-62 -60 -196 -190 -298 -289 -102 -99 -192 -191 -200 -206
-13 -23 -80 -89 -363 -360 l-79 -75 19 -32 18 -32 252 0 252 0 25 25 c34 34
87 34 114 0 20 -25 22 -25 171 -25 94 0 151 4 151 10 0 6 9 10 20 10 11 0 20
-4 20 -10 0 -6 108 -10 305 -10 l305 0 0 23 c0 13 -11 34 -25 47 -23 22 -31
23 -159 21 l-134 -2 -80 73 c-45 40 -79 74 -76 77 2 2 37 -27 77 -66 l72 -70
138 0 c117 -1 141 -4 158 -19 10 -9 19 -15 20 -13 0 2 2 13 4 23 2 11 16 31
32 45 l27 26 -22 -26 c-17 -20 -22 -38 -22 -82 l0 -57 69 0 69 0 4 60 c6 86
17 94 136 101 53 3 93 6 88 7 -5 1 -1 11 8 21 15 16 27 18 77 14 l59 -6 97 94
c54 52 185 179 291 284 106 104 197 192 202 193 12 4 14 102 2 102 -4 0 -48
-40 -97 -90 -49 -49 -93 -90 -97 -90 -4 0 40 46 97 102 58 57 105 110 105 118
0 9 -45 59 -100 113 -55 53 -96 97 -92 97 4 0 45 -38 92 -85 47 -47 88 -85 92
-85 5 0 8 92 8 205 l0 206 -27 23 c-26 23 -27 24 -10 50 10 14 22 26 27 26 6
0 10 27 10 60 0 33 -2 60 -5 60 -3 0 -17 -7 -30 -16 -22 -14 -27 -14 -54 -1
-27 14 -31 13 -47 -4 -9 -11 -30 -19 -47 -19 -24 0 -49 18 -131 98 -215 209
-219 212 -253 212 -46 0 -81 -16 -116 -53 -18 -19 -26 -24 -19 -11 10 19 -6
38 -183 208 -186 179 -195 189 -194 224 l1 37 8 -39 c6 -30 21 -52 66 -94 33
-31 116 -112 186 -181 l127 -125 40 22 c21 12 53 22 71 22 35 0 42 -8 -259
278 -31 30 -51 52 -45 50 11 -3 93 -80 513 -481 145 -137 170 -157 195 -155
16 2 34 11 39 20 9 14 -20 47 -184 205 -106 103 -236 228 -286 277 -98 94
-111 115 -93 143 8 15 9 13 4 -9 -7 -30 -38 3 340 -363 136 -132 259 -245 273
-251 21 -9 32 -8 54 5 28 16 29 17 29 109 0 50 -3 92 -7 92 -4 0 -23 -15 -43
-32 -20 -18 -17 -14 7 10 34 34 43 50 43 78 0 18 -4 34 -9 34 -4 0 -37 -27
-72 -60 -35 -33 -73 -60 -84 -59 -12 0 -67 44 -132 107 l-113 107 0 109 0 108
82 85 c46 47 96 92 112 100 26 14 30 13 61 -9 18 -13 58 -47 89 -76 31 -28 59
-52 61 -52 3 0 5 14 5 31 0 24 -9 39 -35 62 -19 16 -35 34 -35 40 0 6 13 -1
28 -16 15 -15 31 -27 35 -27 4 0 7 106 7 236 0 146 -4 234 -10 232 -5 -1 -60
-52 -122 -112 -214 -208 -253 -240 -99 -84 85 86 172 170 193 185 24 18 38 36
38 51 0 12 -3 22 -7 22 -10 0 -79 -65 -263 -244 -80 -77 -52 -47 62 69 l208
209 0 98 c0 57 -4 98 -10 98 -5 0 -16 13 -25 29 -17 33 -7 77 20 87 10 4 15
20 15 54 0 39 -4 49 -20 53 -27 7 -27 47 0 54 13 3 20 14 20 29 0 20 -6 23
-47 27 l-48 3 48 2 c33 1 47 6 47 16 0 11 -15 16 -52 19 l-53 3 53 2 c49 2 52
4 52 28 0 15 -10 34 -22 44 -22 17 -24 17 -43 2 -20 -17 -20 -17 -1 6 19 22
19 22 -4 47 -13 14 -29 25 -35 25 -7 0 -20 9 -29 19 -14 15 -15 24 -6 40 8 17
21 21 58 21 60 1 82 17 82 61 l0 34 -223 -3 -224 -3 -134 129 -134 130 1 223
c0 124 4 236 7 250 5 18 18 31 41 40 36 15 208 174 198 183 -15 16 -65 4 -84
-19 -17 -21 -28 -25 -74 -25 -36 0 -61 -5 -70 -15 -36 -36 -90 -5 -77 43 5 20
1 22 -31 22 l-36 0 0 -131 0 -130 30 -11 c53 -18 53 -94 -1 -105 l-29 -5 0
-153 0 -153 34 -20 c19 -11 40 -33 48 -49 11 -23 21 -29 53 -31 22 -2 45 -8
51 -13 40 -33 5 -99 -52 -99 -55 0 -74 28 -74 105 0 65 0 65 -35 79 l-35 15 0
161 0 161 35 15 c50 21 47 62 -8 83 l-27 11 0 135 0 135 -55 0 -55 0 0 -94 0
-94 35 -26 35 -27 0 -234 c0 -129 -3 -236 -7 -238 -5 -3 -7 102 -5 233 l3 239
-29 15 c-39 20 -42 31 -42 137 l0 89 -63 0 c-35 0 -67 -3 -70 -7 -4 -4 5 -20
20 -35 27 -28 28 -32 28 -146 l0 -116 33 -7 c69 -14 72 -23 70 -208 l-2 -166
-6 167 c-3 110 -9 171 -17 179 -7 7 -29 15 -50 18 l-38 6 0 121 0 121 -32 37
-32 36 -286 0 c-284 0 -286 0 -280 -20 4 -12 0 -31 -8 -44 -15 -23 -11 -28
204 -235 120 -117 219 -216 219 -219 0 -4 -100 91 -222 210 -123 120 -230 218
-239 218 -9 0 -27 9 -41 20 -18 13 -45 20 -94 23 l-69 3 73 2 c65 2 72 4 72
22 0 19 -7 20 -135 20 l-135 0 0 -25 c0 -33 -42 -75 -73 -75 -34 0 -73 34 -80
70 -5 21 -12 30 -27 30 -18 0 -20 -6 -20 -64 0 -59 2 -66 31 -90 21 -18 42
-26 67 -26 32 0 45 9 105 70 53 55 74 70 95 69 l27 -2 -25 -4 c-14 -3 -57 -36
-96 -74 -64 -61 -76 -69 -111 -69 -31 0 -46 7 -68 30 -23 24 -35 29 -56 25
-31 -7 -54 15 -44 45 4 14 15 20 36 20 27 0 29 3 29 35 l0 35 -230 0 c-217 0
-231 -1 -250 -20 -11 -11 -26 -20 -32 -19 -7 0 -3 5 10 11 32 16 27 28 -13 28
-34 0 -47 -13 -22 -23 9 -4 9 -6 -1 -6 -7 -1 -15 6 -18 14 -4 11 -21 15 -58
15 -41 0 -54 -4 -64 -21 -7 -11 -28 -27 -47 -35 -41 -17 -73 -7 -103 30 -17
22 -28 26 -74 26 -30 0 -60 -6 -67 -12 -11 -10 -13 -10 -7 0 5 8 -3 12 -28 12
-19 0 -37 -6 -39 -12 -4 -10 -6 -10 -6 0 -1 8 -20 12 -61 12 -58 0 -60 -1 -55
-22 7 -31 -8 -50 -36 -46 -20 2 -24 8 -23 36 l2 32 -104 0 -104 0 0 -25 c0
-14 -7 -28 -15 -31 -21 -9 -22 -385 -1 -403 20 -17 28 -74 16 -106 -18 -47
-59 -75 -110 -75 -52 0 -83 18 -105 60 -45 88 19 176 124 168 l46 -3 3 172 c2
164 2 173 -18 183 -12 6 -20 21 -20 35 0 24 -2 25 -69 25 -62 0 -70 -2 -85
-25z m2829 -312 c4 -19 12 -23 43 -23 20 0 43 -4 51 -9 8 -5 -5 -7 -35 -4 -27
3 -55 10 -61 16 -10 7 -12 46 -11 146 l2 136 3 -120 c2 -66 5 -130 8 -142z
m-2205 162 c14 -17 5 -51 -16 -59 -22 -8 -54 11 -54 32 0 38 46 56 70 27z
m290 0 c14 -17 5 -51 -15 -59 -35 -13 -63 21 -45 55 13 23 43 25 60 4z m290 0
c14 -17 5 -51 -15 -59 -35 -13 -63 21 -45 55 13 23 43 25 60 4z m290 -4 c12
-23 5 -47 -16 -55 -21 -8 -42 3 -49 25 -14 42 44 68 65 30z m655 -1 c-11 -4
-31 -20 -45 -35 -14 -15 -47 -45 -75 -67 -28 -23 -15 -7 30 35 44 42 87 76 95
76 9 0 8 -3 -5 -9z m73 3 c-10 -2 -26 -2 -35 0 -10 3 -2 5 17 5 19 0 27 -2 18
-5z m47 -32 c-6 -5 -25 10 -25 20 0 5 6 4 14 -3 8 -7 12 -15 11 -17z m309
-301 c5 -8 -50 43 -123 115 -72 71 -138 133 -146 138 -8 4 -15 13 -15 20 0 11
267 -245 284 -273z m-401 255 c-37 -16 -44 -47 -15 -64 19 -12 12 -14 -12 -5
-38 15 -1 85 44 84 8 -1 0 -7 -17 -15z m-288 -40 c45 -44 21 -105 -40 -105
-58 0 -86 69 -45 110 27 27 56 25 85 -5z m-1483 -88 c-45 -45 -82 -90 -82 -98
0 -9 9 -24 20 -34 11 -10 20 -24 20 -32 0 -8 -26 -39 -57 -70 -32 -31 -209
-205 -393 -387 -184 -183 -344 -338 -355 -346 -11 -8 163 167 388 389 224 222
407 409 407 416 0 6 -9 20 -20 30 -11 10 -20 27 -20 37 0 17 154 178 169 178
3 0 -31 -37 -77 -83z m2338 18 c35 -35 62 -66 59 -67 -2 -2 -34 27 -70 65 -36
37 -63 67 -60 67 4 0 35 -29 71 -65z m-1065 -36 l20 -24 -25 20 c-13 11 -36
31 -50 44 l-25 24 30 -21 c17 -11 39 -30 50 -43z m1055 -40 c0 -4 -16 9 -35
28 -19 19 -35 38 -35 41 0 3 16 -9 35 -28 19 -19 35 -37 35 -41z m-2231 59
c-2 -2 -20 -16 -39 -33 l-35 -30 29 33 c17 17 34 32 40 32 5 0 7 -1 5 -2z
m1833 -25 c22 -20 24 -66 2 -87 -36 -37 -104 -7 -104 45 0 50 64 76 102 42z
m-532 -118 c52 -52 92 -95 90 -95 -3 0 -48 43 -100 95 -52 52 -92 95 -90 95 3
0 48 -43 100 -95z m-771 68 c24 6 29 -11 6 -19 -17 -7 -45 12 -45 30 0 6 4 5
9 -3 5 -8 18 -12 30 -8z m-586 -33 c8 -29 60 -28 75 3 10 21 11 21 11 2 1 -28
-17 -45 -48 -45 -27 0 -61 26 -61 47 0 20 17 15 23 -7z m2284 -152 c-2 -35 -3
-9 -3 57 0 66 1 94 3 63 2 -32 2 -86 0 -120z m51 -102 l-22 -21 17 21 c14 17
17 44 19 145 l2 124 3 -124 c3 -119 3 -126 -19 -145z m-571 183 c-15 -11 -27
-29 -27 -39 0 -25 -27 -50 -54 -50 -15 0 -44 -22 -85 -65 -54 -56 -62 -69 -57
-91 5 -17 3 -23 -4 -19 -5 3 -10 18 -10 32 0 19 16 41 60 80 33 30 60 59 60
64 0 6 -3 8 -7 6 -12 -8 -14 53 -2 74 11 22 68 26 87 7 10 -10 17 -7 34 10 12
12 24 19 26 17 3 -3 -7 -14 -21 -26z m450 -56 c-2 -16 -4 -5 -4 22 0 28 2 40
4 28 2 -13 2 -35 0 -50z m-1607 18 c0 -9 -7 -25 -15 -35 -11 -14 -15 -47 -15
-119 l0 -99 75 -77 c71 -73 75 -80 75 -123 0 -44 -2 -46 -117 -158 -65 -62
-241 -233 -390 -378 l-273 -265 -2 -206 c-2 -167 -3 -180 -5 -68 l-4 137 -54
0 c-44 0 -57 -4 -69 -22 -22 -31 -22 -124 0 -132 10 -4 14 -15 12 -33 -2 -22
-9 -29 -30 -31 -43 -5 -63 56 -22 72 10 4 14 22 14 59 0 44 4 58 25 77 24 23
40 27 98 29 27 1 27 2 27 64 0 57 3 66 28 87 25 21 175 167 595 579 153 151
157 156 157 196 0 40 -5 47 -75 113 l-75 71 0 115 c0 66 -4 117 -10 121 -16
10 -12 43 7 54 21 11 43 -3 43 -28z m524 -24 c17 -46 -20 -85 -68 -73 -39 10
-54 48 -32 81 14 22 24 26 54 23 30 -2 38 -8 46 -31z m-994 7 c-60 -8 -128 -8
-123 -1 2 4 37 6 76 6 40 -1 61 -3 47 -5z m1400 -9 c0 -19 -44 -30 -67 -16
-14 9 -12 9 14 5 25 -5 34 -2 39 10 8 20 14 21 14 1z m598 -72 c-7 -10 -64
-67 -128 -128 -137 -131 -131 -121 22 35 109 111 134 133 106 93z m82 7 c0 -6
-47 -56 -105 -112 l-105 -101 0 -128 c0 -81 -4 -130 -11 -135 -8 -4 -8 -9 0
-17 14 -14 14 -44 0 -52 -5 -4 -21 -4 -35 -1 -26 7 -32 34 -12 54 9 9 5 12
-20 12 l-32 0 2 108 2 107 3 -102 4 -103 44 0 45 0 0 127 0 127 108 112 c121
125 112 117 112 104z m-2642 -27 c-13 -16 -104 -107 -203 -203 l-180 -175 200
203 c110 111 201 202 203 202 2 0 -7 -12 -20 -27z m-463 -213 c-126 -126 -234
-230 -240 -230 -9 1 455 459 465 460 3 0 -99 -103 -225 -230z m3165 217 c0 -2
-15 -16 -32 -33 l-33 -29 29 33 c28 30 36 37 36 29z m-2203 -94 c-2 -16 -4 -3
-4 27 0 30 2 43 4 28 2 -16 2 -40 0 -55z m1199 50 c-21 -3 -68 -41 -160 -129
-100 -94 -137 -123 -156 -122 -25 1 -25 1 -2 5 13 3 82 61 153 129 114 109
134 124 162 123 l32 -2 -29 -4z m1034 -16 c0 -2 -12 -14 -27 -28 l-28 -24 24
28 c23 25 31 32 31 24z m-110 -21 c0 -2 -8 -10 -17 -17 -16 -13 -17 -12 -4 4
13 16 21 21 21 13z m-1746 -22 c25 -24 24 -62 -2 -81 -37 -29 -82 -3 -82 47 0
45 52 66 84 34z m445 -10 c12 -15 21 -33 21 -41 0 -21 -46 -63 -70 -63 -28 0
-60 35 -60 67 0 61 71 85 109 37z m407 2 c21 -33 15 -65 -17 -89 -61 -45 -133
38 -82 95 24 27 79 24 99 -6z m854 -6 c0 -5 -10 -15 -22 -21 -23 -12 -23 -12
-4 10 21 23 26 26 26 11z m-2340 -100 c68 -62 98 -72 143 -48 20 10 21 10 8
-5 -8 -11 -28 -17 -52 -17 -33 0 -47 8 -102 60 -36 33 -69 60 -74 60 -5 0 -38
-30 -73 -66 -36 -36 -114 -111 -175 -166 -72 -65 -49 -40 64 71 96 94 180 171
185 171 6 0 40 -27 76 -60z m253 48 c-6 -11 -31 -10 -37 1 -3 5 5 8 18 7 13 0
22 -4 19 -8z m1745 -207 c13 -16 17 -176 5 -184 -5 -3 -6 34 -5 81 l4 87 -116
113 c-64 63 -116 116 -116 119 0 6 205 -188 228 -216z m399 197 c-3 -8 -6 -5
-6 6 -1 11 2 17 5 13 3 -3 4 -12 1 -19z m-612 -79 l30 -7 -30 -1 c-36 -1 -55
14 -55 44 0 18 2 17 13 -5 7 -15 25 -28 42 -31z m548 10 c15 -24 1 -49 -27
-49 -31 0 -40 14 -32 46 8 29 42 30 59 3z m-788 -21 c59 -3 60 -3 60 -33 0
-25 -4 -30 -24 -30 -13 0 -29 9 -35 20 -14 26 -26 34 -41 28 -14 -5 -45 22
-45 40 0 6 6 3 13 -6 8 -11 30 -17 72 -19z m949 10 c14 -22 -12 -52 -37 -42
-17 6 -23 44 -10 58 11 11 35 3 47 -16z m704 -68 c199 0 213 1 232 20 24 24
43 25 64 4 14 -13 16 -58 16 -342 l0 -326 -52 -53 c-29 -29 -55 -53 -59 -53
-3 0 18 24 48 53 l53 54 0 306 c0 239 -3 307 -12 307 -10 0 -10 2 0 8 15 10 6
38 -15 46 -18 7 -43 -10 -43 -31 0 -7 10 -18 23 -23 21 -8 21 -9 1 -9 -11 -1
-26 5 -33 12 -9 9 -67 12 -219 12 -207 0 -208 0 -238 25 -17 14 -39 36 -49 50
-10 14 2 6 26 -17 l45 -43 212 0z m-2168 -27 l0 -97 -150 -144 c-136 -131
-149 -146 -144 -172 5 -21 1 -31 -17 -44 -45 -31 -89 -9 -89 44 0 35 30 55 71
46 26 -5 42 7 169 131 l140 135 0 99 c0 59 4 99 10 99 6 0 10 -39 10 -97z
m-881 11 c62 -52 29 -144 -51 -144 -82 0 -116 83 -59 141 36 36 70 37 110 3z
m1024 4 c12 -7 55 -44 94 -83 67 -63 77 -70 125 -76 l53 -6 -49 -2 c-49 -1
-51 0 -127 75 -43 41 -83 73 -89 69 -6 -4 -17 -2 -25 5 -16 13 -28 -1 -19 -23
4 -10 -1 -15 -13 -14 -15 2 -19 -8 -23 -65 l-5 -67 -75 -71 c-41 -40 -154
-150 -251 -246 -98 -96 -181 -174 -185 -174 -5 0 107 114 249 253 l258 252 -1
52 c0 52 16 103 32 103 4 0 7 3 7 8 -4 25 10 29 44 10z m661 -4 c20 -20 20
-29 0 -49 -19 -19 -33 -16 -51 12 -12 18 -12 23 2 37 20 20 29 20 49 0z
m-1197 -16 c14 -13 23 -33 23 -50 0 -36 -40 -78 -75 -78 -14 0 -37 11 -50 25
-69 68 31 170 102 103z m-227 -2 c28 -35 -11 -93 -47 -70 -36 22 -23 84 17 84
10 0 23 -7 30 -14z m2038 -15 c3 -8 -1 -12 -9 -9 -7 2 -15 10 -17 17 -3 8 1
12 9 9 7 -2 15 -10 17 -17z m921 -96 c38 -36 88 -95 79 -95 -2 0 -42 39 -88
87 -83 84 -79 88 9 8z m-4071 8 c-1 -5 -59 -62 -128 -128 -152 -146 -149 -140
8 18 112 112 128 126 120 110z m45 -17 c7 -17 -18 -54 -29 -43 -4 4 -2 7 4 7
16 0 15 37 0 43 -8 4 -7 6 3 6 9 1 19 -5 22 -13z m535 -28 c40 -19 72 -74 72
-122 0 -151 -207 -189 -266 -49 -20 46 -17 80 8 121 39 63 116 83 186 50z
m2972 -160 c0 -20 5 -40 10 -43 6 -3 9 -23 8 -43 l-1 -37 -4 33 c-3 18 -10 35
-17 38 -7 3 -10 18 -8 40 4 34 -1 42 -74 117 l-79 80 82 -74 c75 -67 83 -77
83 -111z m-63 160 c-3 -8 -6 -5 -6 6 -1 11 2 17 5 13 3 -3 4 -12 1 -19z m537
-6 c2 -4 -12 -6 -32 -4 -35 3 -43 -3 -136 -95 -55 -54 -94 -88 -88 -76 7 11
51 57 99 102 72 67 93 81 120 81 17 0 34 -3 37 -8z m-912 -39 c27 -31 -4 -83
-40 -68 -14 7 -13 9 8 14 37 10 35 55 -2 59 -16 2 -28 0 -28 -5 -1 -23 -50
-64 -81 -68 -19 -3 -40 -13 -47 -22 -45 -63 -77 -69 -101 -18 -17 36 -30 47
-54 41 -9 -2 -15 0 -11 5 13 21 45 7 69 -31 14 -22 30 -40 37 -40 6 0 28 18
48 40 24 26 46 40 62 40 17 0 34 11 52 35 30 39 64 46 88 18z m1158 13 c0 -2
-8 -10 -17 -17 -16 -13 -17 -12 -4 4 13 16 21 21 21 13z m-4300 -21 c-7 -8
-17 -15 -23 -15 -6 0 -2 7 9 15 25 19 30 19 14 0z m2478 3 c20 -20 14 -47 -12
-54 -14 -3 -30 -3 -35 0 -6 4 -30 -11 -54 -34 l-44 -40 -170 0 -170 0 -46 40
c-37 33 -52 40 -87 40 -40 0 -47 -5 -168 -123 -70 -67 -207 -198 -304 -291
l-178 -168 0 -94 0 -93 30 6 c38 7 70 -19 70 -57 0 -38 -32 -64 -70 -57 l-30
7 0 -128 c0 -103 -3 -132 -17 -152 -17 -23 -16 -24 120 -156 172 -167 171
-158 47 -278 -131 -127 -132 -120 63 -311 84 -82 152 -150 150 -150 -1 0 -72
66 -156 148 -94 89 -156 156 -159 171 -8 41 16 78 101 157 58 56 81 84 81 101
0 19 -50 74 -210 231 l-210 205 2 74 2 73 3 -71 4 -70 70 -70 c100 -98 99
-101 99 233 0 145 -4 263 -8 263 -4 0 -27 -19 -50 -43 l-43 -44 2 -75 c1 -42
-1 -81 -5 -87 -11 -17 -73 -14 -80 5 -12 30 -6 36 13 13 16 -20 23 -22 38 -13
14 9 19 26 21 87 l3 76 177 168 c97 92 231 220 297 283 258 248 248 240 299
240 40 0 52 -5 90 -40 l43 -40 165 0 165 0 47 41 c25 22 46 49 46 58 0 10 3
21 7 24 10 11 38 8 51 -5z m803 -34 c3 -16 3 -70 1 -120 l-4 -91 -146 -139
c-79 -76 -151 -141 -159 -142 -19 -5 -53 26 -53 47 0 9 68 84 150 166 83 82
150 145 150 138 0 -6 -63 -70 -139 -143 -77 -73 -142 -139 -145 -147 -7 -18
15 -53 33 -53 8 0 79 64 158 142 l144 143 -3 110 c-3 105 -4 110 -25 113 -17
3 -49 -23 -133 -106 -60 -61 -110 -107 -110 -103 0 4 51 58 114 119 101 100
116 111 137 104 15 -6 26 -20 30 -38z m533 23 c15 -24 -17 -56 -41 -41 -24 15
-26 29 -7 48 19 19 33 17 48 -7z m287 6 c13 -16 12 -17 -3 -4 -17 13 -22 21
-14 21 2 0 10 -8 17 -17z m-2851 -119 c-69 -69 -192 -189 -275 -266 -82 -77
-28 -20 120 126 149 146 272 266 275 266 3 0 -51 -57 -120 -126z m2220 -72 l0
-125 -65 -65 c-36 -35 -65 -60 -65 -55 0 5 27 35 60 68 l60 59 0 120 c0 110
-2 122 -22 145 l-23 26 28 -24 c27 -24 27 -26 27 -149z m778 -401 c-18 -20
-60 -61 -93 -91 -42 -37 -34 -27 25 33 l85 87 1 143 c5 333 9 385 11 133 l3
-268 -32 -37z m-685 59 l-158 -155 153 155 152 155 2 155 2 155 3 -155 4 -154
-158 -156z m544 268 c-2 -35 -3 -7 -3 62 0 69 1 97 3 63 2 -35 2 -91 0 -125z
m-1021 27 c-102 -100 -134 -125 -155 -124 l-26 2 25 4 c15 3 74 53 146 124 66
65 125 119 130 119 5 -1 -49 -57 -120 -125z m-1195 78 c33 -30 49 -37 82 -38
33 0 42 -4 45 -19 6 -27 -25 -48 -50 -35 -11 6 -17 17 -14 25 3 8 0 14 -6 14
-6 0 -31 18 -55 41 -70 64 -76 61 -295 -159 l-188 -187 0 -69 c0 -66 -1 -70
-40 -112 l-40 -44 0 -223 0 -224 25 -23 25 -23 0 91 0 92 30 0 30 0 2 213 c3
272 4 291 14 308 17 26 324 323 324 313 0 -5 -72 -79 -160 -163 l-160 -153 0
-377 0 -378 143 -139 c290 -285 510 -506 442 -444 -38 36 -190 183 -337 327
l-268 263 0 109 c0 106 0 108 -22 107 -22 -1 -23 -4 -26 -125 l-3 -125 68 -70
c67 -69 49 -60 -34 18 -34 32 -43 47 -43 74 0 24 -9 45 -30 69 l-30 34 0 227
0 228 40 39 c40 39 40 40 40 114 l0 74 191 186 c105 102 199 189 208 193 32
13 52 7 92 -29z m-1931 12 c-7 -8 -16 -12 -21 -9 -13 8 -1 24 18 24 13 0 13
-3 3 -15z m-204 -11 c16 6 16 5 -1 -14 -18 -20 -20 -20 -26 -3 -11 26 -10 41
0 24 6 -8 16 -11 27 -7z m3784 -91 l-5 -103 -61 -57 c-102 -97 -114 -102 -26
-12 l82 84 0 91 c0 50 3 94 7 97 9 10 9 12 3 -100z m-217 -52 l-27 -26 22 26
c17 20 22 39 24 90 l2 64 3 -64 c4 -60 2 -66 -24 -90z m97 81 c0 -62 -3 -71
-27 -93 l-28 -24 23 27 c21 23 23 35 20 92 -1 36 0 66 5 66 4 0 7 -31 7 -68z
m227 6 c-2 -13 -4 -3 -4 22 0 25 2 35 4 23 2 -13 2 -33 0 -45z m-3403 36 c18
-18 18 -17 10 -38 -5 -14 -64 -24 -64 -12 0 2 -3 11 -6 19 -5 14 20 47 36 47
5 0 16 -7 24 -16z m-344 -39 c-7 -9 -15 -13 -17 -11 -7 7 7 26 19 26 6 0 6 -6
-2 -15z m1917 -6 c1 -12 1 -20 0 -18 -2 2 -9 12 -16 22 -11 14 -11 17 1 17 7
0 14 -10 15 -21z m640 -11 c-3 -7 -5 -2 -5 12 0 14 2 19 5 13 2 -7 2 -19 0
-25z m-1336 -164 l-181 -176 -2 -207 -3 -206 -2 207 -3 207 182 180 c101 98
185 178 187 176 2 -2 -78 -83 -178 -181z m739 145 c0 -11 -10 -23 -23 -28 -12
-5 -75 -60 -140 -122 -64 -63 -116 -111 -115 -107 7 18 232 237 246 240 10 2
17 13 16 25 0 12 3 20 8 17 4 -3 8 -14 8 -25z m1150 18 c0 -2 -10 -12 -22 -23
l-23 -19 19 23 c18 21 26 27 26 19z m637 -89 c-2 -18 -4 -6 -4 27 0 33 2 48 4
33 2 -15 2 -42 0 -60z m-2362 12 c-27 -27 -51 -47 -54 -45 -5 6 84 95 95 95 5
0 -14 -22 -41 -50z m909 22 l-274 -2 -98 -92 c-53 -50 -114 -109 -135 -131
-20 -21 -34 -32 -31 -24 3 8 63 70 134 136 l128 121 266 0 c206 0 266 3 266
13 0 8 3 7 10 -3 8 -13 -24 -15 -266 -18z m94 -72 l-328 -5 -83 -80 -83 -80
87 88 86 87 324 -2 324 -2 -327 -6z m-1080 -18 c-7 -10 -46 -49 -85 -86 -73
-68 -73 -69 -75 -125 l-2 -56 -3 54 -4 54 88 89 c88 89 105 103 81 70z m2308
-111 c-118 -119 -130 -133 -130 -167 -1 -24 -6 -39 -16 -42 -13 -4 -13 -3 -2
11 9 10 11 27 7 45 -5 27 4 38 127 155 73 70 135 127 138 127 3 0 -53 -58
-124 -129z m273 97 c-13 -24 -365 -371 -382 -377 -7 -2 78 84 187 191 142 138
197 198 191 208 -5 9 -4 11 3 6 9 -5 9 -13 1 -28z m171 -133 c-85 -85 -159
-155 -165 -155 -5 0 62 71 150 158 88 86 162 156 165 154 2 -1 -65 -72 -150
-157z m199 118 c-14 -17 -196 -194 -207 -203 -4 -2 42 46 103 108 101 103 139
138 104 95z m-3615 -26 c10 -7 17 -22 14 -33 -4 -22 -44 -32 -61 -15 -6 6 -36
11 -67 11 -55 0 -56 -1 -115 -61 -99 -101 -129 -119 -196 -119 l-59 0 -89 82
c-49 46 -88 85 -85 87 2 3 42 -32 88 -77 l84 -82 62 0 62 0 93 90 c93 90 93
90 145 90 37 0 57 5 72 20 26 24 29 24 52 7z m2267 -8 c14 -14 19 -28 15 -43
-5 -19 14 -43 112 -141 l117 -118 -123 114 c-104 96 -128 113 -152 111 -50 -6
-72 53 -32 86 22 17 39 15 63 -9z m-2607 5 c24 -9 20 -51 -5 -59 -12 -4 -26
-2 -32 4 -6 6 -42 11 -80 11 -69 0 -107 11 -107 32 0 6 8 4 18 -5 28 -26 136
-23 162 3 22 22 22 22 44 14z m2344 -6 c17 -17 15 -54 -4 -72 -21 -21 -40 -20
-64 4 -24 24 -25 43 -4 64 18 19 55 21 72 4z m638 -23 c-3 -32 -1 -34 20 -29
60 15 108 -31 83 -79 -16 -29 -28 -37 -61 -37 -40 0 -58 33 -58 106 0 52 5 74
16 74 1 0 1 -16 0 -35z m144 18 c0 -5 -13 -17 -28 -27 l-27 -19 24 26 c26 28
31 32 31 20z m-1777 -302 l-27 -26 22 26 c19 22 22 38 24 120 l2 94 3 -94 c4
-92 3 -95 -24 -120z m104 33 c-5 -11 -18 -26 -30 -33 -22 -14 -22 -14 1 11 18
20 22 37 24 104 l2 79 5 -70 c3 -38 2 -79 -2 -91z m1413 152 c0 -2 -8 -10 -17
-17 -16 -13 -17 -12 -4 4 13 16 21 21 21 13z m665 -46 c21 -22 37 -40 34 -40
-3 0 -23 18 -44 40 -21 22 -37 40 -34 40 3 0 23 -18 44 -40z m-3269 -37 l64
-58 0 -117 c0 -111 -1 -118 -26 -147 -14 -17 -40 -41 -57 -52 -23 -16 -18 -7
21 32 l52 55 0 109 0 109 -57 58 c-51 52 -62 58 -98 58 -30 0 -49 -8 -75 -30
l-35 -30 84 -79 c72 -69 83 -83 79 -106 -4 -18 1 -32 14 -45 29 -26 16 -62
-20 -58 -29 3 -29 5 -16 93 5 37 2 43 -34 79 -39 37 -40 38 -51 17 -9 -16 -21
-21 -54 -21 -88 0 -89 44 -4 127 34 33 69 63 77 65 38 12 74 -4 136 -59z
m2049 -9 c44 -42 153 -148 242 -235 l161 -159 232 0 232 0 85 84 c107 105 108
121 8 121 -67 0 -70 -1 -73 -25 -7 -44 -19 -50 -109 -50 -76 0 -88 -3 -115
-25 -27 -23 -38 -25 -120 -25 l-91 0 -181 182 -181 181 186 -176 186 -177 84
0 c72 0 86 3 107 23 20 19 38 23 120 27 l97 5 5 35 5 35 74 3 c77 3 91 -3 91
-41 0 -9 -39 -56 -87 -102 l-88 -85 -235 0 -235 1 -240 234 -240 234 -68 1
c-53 0 -74 -4 -95 -20 -25 -18 -40 -20 -137 -17 l-110 3 111 2 c97 2 113 5
129 22 15 17 31 20 94 20 l76 -1 80 -75z m-521 50 c32 -12 11 -64 -26 -64 -25
0 -43 37 -27 56 12 15 28 18 53 8z m825 -78 c19 -20 44 -36 55 -36 10 0 48
-27 82 -60 l63 -61 143 3 143 3 0 35 0 35 -120 5 -120 6 121 2 c131 2 134 1
134 -52 0 -41 -16 -46 -164 -46 l-141 0 -55 55 c-32 32 -70 59 -90 65 -20 5
-55 30 -80 56 -25 26 -36 42 -25 36 11 -6 36 -26 54 -46z m-1773 -1 c-7 -19
-58 -17 -62 3 -1 7 0 8 3 2 7 -16 43 -12 50 5 3 9 8 14 10 11 3 -3 3 -12 -1
-21z m928 -91 c36 -35 7 -104 -42 -104 -51 0 -77 52 -52 101 13 24 72 26 94 3z
m-401 -523 l32 -35 -37 30 -37 29 2 250 2 250 2 -245 3 -244 33 -35z m709 383
c152 -149 164 -162 149 -177 -10 -10 -11 -9 -6 3 4 11 -36 56 -124 143 -71 70
-125 127 -121 125 5 -2 50 -44 102 -94z m1482 47 c22 -22 50 -41 64 -43 14 -2
34 -15 45 -30 19 -25 19 -28 3 -52 -19 -30 -60 -35 -88 -9 -21 19 -23 45 -6
73 11 17 8 24 -17 50 -16 16 -35 30 -42 30 -7 0 -71 -56 -141 -124 -70 -69
-128 -123 -130 -121 -4 3 261 264 268 265 3 0 23 -18 44 -39z m-434 -1 c-8 -5
-80 -9 -160 -8 l-145 2 150 6 c83 3 155 7 160 8 6 1 3 -3 -5 -8z m-2745 -790
c25 -9 25 -11 25 -127 l0 -118 -88 -88 c-48 -48 -90 -87 -93 -87 -4 0 33 39
82 87 l89 87 0 112 c0 108 -1 112 -25 128 l-25 16 2 308 3 307 2 -308 3 -308
25 -9z m2957 567 c-23 -23 -42 -50 -42 -60 0 -29 34 -19 75 23 21 22 44 40 50
40 5 0 -14 -23 -44 -50 -44 -40 -57 -47 -72 -39 -29 15 -23 40 23 86 23 24 44
43 47 43 3 0 -14 -19 -37 -43z m-3783 -61 c20 -19 21 -26 21 -263 0 -133 -4
-243 -8 -243 -4 0 -7 108 -5 240 l3 240 -35 39 c-19 21 -35 45 -35 52 0 8 8 1
19 -16 10 -16 28 -39 40 -49z m318 -333 c-1 -76 -3 -14 -3 137 0 151 2 213 3
138 2 -76 2 -200 0 -275z m231 108 c2 -215 6 -298 15 -309 10 -13 9 -14 -3
-10 -13 4 -15 49 -18 306 -2 258 -4 302 -17 302 -13 0 -15 -44 -18 -297 l-2
-298 -3 303 -2 303 23 -3 22 -3 3 -294z m130 287 c9 -9 12 -113 12 -409 l0
-396 -45 -42 c-24 -22 -50 -41 -57 -41 -7 0 -4 6 7 12 11 6 35 24 53 41 l32
31 0 390 c0 215 -4 397 -9 405 -5 8 -19 12 -35 9 -14 -3 -23 -1 -20 3 8 13 48
11 62 -3z m-517 -31 c-32 -16 -38 -37 -12 -44 12 -3 21 -9 21 -14 0 -16 -45 8
-49 26 -3 20 23 45 48 45 10 0 7 -5 -8 -13z m2309 -174 c-95 -93 -180 -169
-190 -171 -10 -2 -45 25 -86 64 -54 52 -58 58 -19 26 28 -22 59 -49 69 -61 11
-11 25 -21 32 -21 8 0 92 76 186 169 95 93 175 167 177 165 2 -2 -74 -79 -169
-171z m452 52 l3 -63 90 84 90 84 165 -2 165 -2 -167 -6 -166 -5 -79 -75 c-43
-41 -129 -124 -191 -185 -62 -60 -118 -112 -124 -114 -6 -2 37 43 96 99 l106
103 0 64 c0 50 -5 72 -22 96 l-22 32 27 -24 c22 -20 27 -33 29 -86z m-1659
-56 l27 -23 0 -263 0 -264 155 -152 155 -152 0 -120 0 -121 40 -39 c34 -33 40
-45 40 -81 0 -37 -6 -46 -59 -97 -55 -53 -63 -57 -106 -57 -40 0 -52 5 -81 34
-31 31 -34 39 -34 97 0 85 -14 99 -97 99 l-63 0 0 -70 0 -70 64 -63 c155 -151
163 -157 204 -157 35 0 48 9 165 121 112 106 127 125 127 153 0 22 -8 40 -25
56 -25 23 -25 24 -23 194 l2 171 6 -172 c5 -160 6 -173 28 -195 30 -33 28 -76
-6 -113 -15 -16 -73 -74 -128 -127 -99 -96 -102 -98 -148 -98 -47 0 -49 1
-162 113 l-114 112 0 71 c0 64 -2 72 -21 77 -15 4 -20 12 -17 29 4 30 40 31
53 1 8 -20 17 -23 67 -23 81 0 98 -19 98 -104 0 -58 3 -66 32 -95 25 -25 40
-31 73 -31 37 0 48 6 98 56 73 73 76 104 17 166 l-40 43 0 119 0 119 -161 157
-162 156 6 255 6 254 -87 90 c-58 60 -66 70 -22 29 36 -34 77 -72 93 -85z
m2212 -40 c242 -234 268 -260 240 -240 -16 11 -118 107 -226 213 -107 106
-177 177 -155 158 22 -19 86 -78 141 -131z m40 141 c0 -18 -6 -26 -23 -28 -24
-4 -38 18 -28 44 3 9 15 14 28 12 17 -2 23 -10 23 -28z m-695 5 c14 -17 5 -51
-15 -59 -10 -4 -15 -21 -15 -55 0 -41 -4 -53 -26 -70 -14 -11 -79 -71 -145
-134 l-119 -114 0 -69 0 -68 53 -55 52 -54 -48 38 c-62 49 -67 60 -67 143 l0
70 145 137 145 138 0 46 c0 25 -7 54 -15 65 -29 38 24 78 55 41z m381 5 c10
-6 19 -19 19 -29 0 -25 -35 -54 -57 -47 -25 7 -483 -439 -483 -470 0 -28 80
-117 124 -138 21 -10 42 -13 55 -8 11 4 98 81 193 171 l173 164 -155 -157
c-183 -186 -206 -202 -254 -186 -47 15 -146 121 -146 156 0 26 101 130 397
408 61 58 72 72 67 92 -11 43 25 66 67 44z m-3024 -362 c-1 -68 -3 -15 -3 117
0 132 2 187 3 123 2 -64 2 -172 0 -240z m2043 63 c25 -23 52 -41 60 -41 9 0
45 30 80 66 36 36 74 70 85 76 11 6 -18 -26 -65 -70 -47 -45 -93 -81 -104 -82
-10 0 -71 53 -145 128 -70 70 -88 90 -41 45 47 -45 105 -100 130 -122z m-781
165 c-3 -3 -11 5 -18 17 -13 21 -12 21 5 5 10 -10 16 -20 13 -22z m536 -6 c0
-30 -35 -40 -54 -16 -20 24 -6 48 26 44 22 -2 28 -8 28 -28z m565 27 c0 -2
-12 -14 -27 -28 l-28 -24 24 28 c23 25 31 32 31 24z m1210 -236 c30 -29 42
-44 25 -32 -34 25 -265 251 -265 259 0 5 61 -53 240 -227z m-1270 179 c0 -5
-5 -10 -11 -10 -5 0 -7 5 -4 10 3 6 8 10 11 10 2 0 4 -4 4 -10z m-2403 -277
c-1 -49 -3 -9 -3 87 0 96 2 136 3 88 2 -49 2 -127 0 -175z m3395 240 c22 -20
23 -51 1 -75 -20 -22 -42 -23 -71 -2 -26 18 -28 50 -5 76 20 22 51 23 75 1z
m-2035 -290 c-1 -54 -3 -10 -3 97 0 107 2 151 3 98 2 -54 2 -142 0 -195z
m1857 265 c21 -30 20 -54 -4 -78 -41 -41 -100 -13 -100 46 0 54 73 76 104 32z
m76 -118 c0 -13 -7 -20 -20 -20 -13 0 -20 7 -20 20 0 13 7 20 20 20 13 0 20
-7 20 -20z m-1563 -128 c-116 -116 -116 -117 8 -236 94 -90 95 -92 93 -136
l-1 -45 -6 43 c-5 37 -18 54 -98 136 -124 123 -124 127 -5 245 48 47 89 85 91
83 3 -1 -34 -42 -82 -90z m-1444 -42 c-7 -28 -21 -25 -16 3 6 32 -19 52 -47
37 -29 -15 -23 -52 10 -61 l25 -7 -27 -1 c-40 -1 -48 38 -17 77 l24 28 27 -28
c18 -18 25 -34 21 -48z m1711 -42 c83 -84 90 -92 27 -33 -47 44 -88 82 -91 85
-25 26 -67 50 -85 50 -12 0 -32 -9 -45 -20 -32 -28 -38 -25 -10 5 16 17 34 25
58 25 32 0 47 -12 146 -112z m-1446 84 c2 -7 -3 -12 -12 -12 -9 0 -16 7 -16
16 0 17 22 14 28 -4z m3511 -10 c26 -21 34 -37 38 -72 5 -40 2 -49 -24 -77
-49 -53 -111 -56 -158 -8 -47 46 -45 107 5 156 39 39 93 40 139 1z m-3984 -22
c-10 -11 -21 -18 -23 -15 -3 3 3 12 14 20 27 20 30 18 9 -5z m3694 -134 c-46
-45 -175 -170 -286 -277 l-203 -196 0 -69 0 -69 -250 -239 c-137 -132 -250
-242 -250 -246 0 -4 26 -31 58 -60 97 -91 310 -301 301 -298 -4 2 -89 81 -189
177 l-181 174 -47 -44 c-25 -24 -50 -48 -54 -54 -4 -5 -8 -57 -8 -116 l0 -105
33 -32 c35 -34 81 -50 92 -32 11 18 53 11 69 -12 13 -19 14 -25 3 -42 -8 -11
-20 -22 -28 -24 -10 -4 -9 1 4 15 21 24 22 49 2 57 -35 13 -65 -24 -43 -53 12
-14 11 -14 -4 -2 -10 7 -18 20 -18 27 0 8 -9 14 -20 14 -10 0 -37 17 -60 38
l-40 39 0 113 0 113 78 77 c42 42 182 177 310 300 l232 223 0 67 0 66 138 134
c312 304 432 424 433 434 0 6 3 5 6 -3 4 -9 -26 -45 -78 -95z m-1534 34 c27
-27 47 -50 44 -50 -3 0 -27 23 -54 50 -27 28 -47 50 -44 50 3 0 27 -22 54 -50z
m-2018 -32 c-2 -13 -4 -5 -4 17 -1 22 1 32 4 23 2 -10 2 -28 0 -40z m1417
-225 c79 -87 26 -38 -124 114 -134 136 -138 142 -35 43 66 -63 137 -134 159
-157z m1680 215 c20 -57 -57 -93 -90 -43 -15 23 -15 27 0 51 24 36 76 31 90
-8z m909 -128 c4 0 17 4 27 10 23 12 47 4 61 -22 13 -24 3 -55 -22 -69 -26
-13 -69 12 -69 41 0 19 -7 20 -202 20 -153 -1 -207 -4 -220 -14 -10 -7 -96
-89 -190 -182 l-173 -169 -6 -65 -6 -65 -1 66 -2 65 108 105 c59 57 146 141
194 187 l86 82 123 0 122 0 -24 27 -24 26 36 -26 c30 -23 46 -27 100 -27 l63
0 -54 57 -55 57 59 -52 c33 -29 64 -52 69 -52z m-735 8 c28 -28 1 -75 -38 -63
-25 8 -27 50 -2 64 22 13 26 13 40 -1z m-593 -38 c14 -44 -44 -69 -65 -29 -9
15 -8 24 1 35 18 21 57 18 64 -6z m243 8 c19 -19 14 -56 -8 -63 -41 -13 -69
43 -32 64 22 13 26 13 40 -1z m-2388 -21 c0 -1 -39 -41 -87 -87 l-88 -85 85
88 c79 81 90 92 90 84z m2556 -118 l-106 -101 0 -88 0 -87 -52 -52 c-30 -29
-62 -51 -74 -51 -15 0 -23 -8 -27 -27 -4 -19 -56 -78 -158 -178 -171 -168
-177 -175 -204 -194 -11 -7 62 67 163 166 160 157 182 182 182 210 0 38 -22
63 -57 63 -29 0 -20 8 -383 -341 -302 -290 -559 -529 -568 -529 -4 0 11 17 33
37 69 62 369 347 632 601 228 219 255 242 286 242 21 0 41 -7 52 -20 30 -33
64 -25 117 27 l48 47 0 86 0 87 107 106 c59 58 109 104 111 102 3 -2 -43 -50
-102 -106z m668 -16 c115 -110 118 -112 169 -116 l52 -3 -53 -2 -54 -2 -110
108 c-60 59 -116 111 -124 115 -20 12 -32 3 -151 -114 -60 -57 -117 -111 -128
-118 -11 -7 41 46 115 118 78 76 142 130 151 129 9 -2 69 -53 133 -115z m-914
90 c-32 -6 -40 -20 -33 -54 4 -23 -3 -37 -43 -79 -47 -50 -48 -54 -51 -118
l-2 -67 -188 -183 c-103 -100 -255 -246 -338 -324 l-150 -141 166 164 c91 90
240 237 332 327 l167 163 0 62 c0 61 1 64 45 107 39 38 45 50 45 85 0 48 14
66 50 64 l25 -2 -25 -4z m1395 -15 c-11 -6 -26 -18 -32 -26 -7 -9 -13 -11 -13
-4 0 12 39 42 55 42 5 0 1 -6 -10 -12z m-2325 -68 c24 -24 26 -63 4 -84 -8 -9
-18 -16 -22 -17 -4 0 -15 -2 -25 -4 -49 -9 -77 80 -35 109 30 21 54 20 78 -4z
m2371 -37 c13 -16 12 -17 -3 -4 -17 13 -22 21 -14 21 2 0 10 -8 17 -17z
m-3080 -14 c15 -29 -12 -59 -38 -43 -24 15 -26 29 -8 48 22 21 32 20 46 -5z
m-460 -12 c17 -13 11 -48 -11 -62 -9 -6 -9 -2 -1 12 14 28 -7 56 -40 51 -31
-4 -39 -46 -13 -65 16 -12 16 -13 1 -13 -24 0 -39 34 -27 64 8 21 16 26 42 26
18 0 40 -6 49 -13z m-659 -43 c25 -55 -36 -104 -87 -70 -18 12 -25 25 -25 50
0 69 83 84 112 20z m311 -44 l-92 -90 -83 2 -83 1 81 6 81 6 87 83 c48 45 90
82 94 82 4 0 -34 -41 -85 -90z m2119 -15 c4 -5 8 -27 8 -47 0 -28 -8 -46 -31
-70 l-31 -33 26 36 c43 59 36 93 -31 163 l-58 60 55 -49 c30 -27 58 -54 62
-60z m380 78 c22 -20 24 -66 2 -87 -35 -36 -104 -7 -104 42 0 54 62 81 102 45z
m1404 -12 c17 -33 -1 -79 -33 -87 -59 -15 -101 42 -68 92 22 34 83 31 101 -5z
m-4124 -3 c-7 -7 -12 -8 -12 -2 0 14 12 26 19 19 2 -3 -1 -11 -7 -17z m1732
-40 c8 -14 7 -22 -6 -35 -15 -14 -21 -15 -44 -4 -27 12 -30 9 -107 -68 -75
-74 -79 -80 -64 -96 10 -9 17 -25 17 -36 0 -24 -34 -59 -59 -59 -11 0 -87 -66
-178 -154 -87 -84 -169 -158 -180 -165 -35 -18 -127 -14 -154 8 -13 10 -78 72
-145 137 -66 66 -104 106 -85 89 20 -16 84 -76 142 -132 l106 -103 61 0 c72 0
61 -8 277 202 104 102 128 129 118 139 -7 7 -13 25 -13 40 0 29 13 43 50 53
14 4 68 51 120 105 96 100 122 114 144 79z m2131 -38 c0 -29 -34 -40 -54 -17
-18 23 -2 49 28 45 20 -2 26 -8 26 -28z m90 10 c10 -11 16 -20 13 -20 -3 0
-13 9 -23 20 -10 11 -16 20 -13 20 3 0 13 -9 23 -20z m-750 -21 c14 -42 -45
-66 -61 -24 -10 25 4 45 30 45 16 0 27 -7 31 -21z m-2859 -31 l19 -22 -25 17
c-13 9 -33 17 -44 17 -11 0 -72 -51 -147 -125 -70 -69 -132 -125 -138 -125 -5
0 48 54 119 121 71 66 132 124 135 130 11 17 62 9 81 -13z m1681 -37 l-57 -60
0 -69 c0 -87 -16 -111 -80 -119 -36 -4 -55 -15 -92 -51 -34 -32 -46 -52 -42
-64 9 -30 -5 -56 -37 -67 -26 -9 -34 -7 -53 13 l-23 22 -107 -100 -107 -101 1
-80 0 -81 -45 -44 c-25 -24 -45 -39 -45 -32 0 17 -34 15 -69 -5 l-31 -18 -40
43 c-21 23 -42 42 -45 42 -3 0 -17 -7 -30 -16 -23 -15 -27 -15 -50 0 -32 21
-33 59 -3 80 12 9 27 16 33 16 5 -1 -2 -8 -17 -16 -33 -17 -36 -44 -9 -68 18
-17 22 -17 43 -2 31 22 33 21 83 -25 43 -39 46 -41 63 -25 10 9 34 16 52 16
25 0 43 9 67 32 31 30 33 36 33 100 0 71 -2 74 -44 58 -20 -7 -26 -17 -26 -39
0 -33 -31 -62 -59 -54 -22 6 -44 40 -34 56 5 8 9 3 13 -13 4 -16 14 -26 29
-28 28 -4 43 15 36 44 -4 17 2 25 29 38 19 9 38 16 43 16 5 0 68 61 141 134
73 74 137 138 142 141 5 3 19 1 31 -6 19 -10 27 -5 73 39 38 38 61 52 91 56
63 10 75 28 75 111 l0 72 58 57 c75 73 80 72 9 -3z m-128 -20 c-25 -24 -30
-34 -21 -43 16 -16 15 -61 0 -76 -18 -18 -63 -14 -83 8 -13 15 -20 17 -30 7
-20 -19 -211 -202 -335 -321 -63 -60 -154 -148 -203 -195 -67 -66 -90 -82 -99
-73 -9 9 -9 12 3 12 15 0 40 23 403 369 135 129 246 238 246 243 0 17 41 48
63 48 13 0 36 13 52 30 16 16 30 28 33 26 2 -2 -11 -18 -29 -35z m1991 17 c0
-13 -23 -5 -28 10 -2 7 2 10 12 6 9 -3 16 -11 16 -16z m-2250 -141 c-86 -83
-231 -225 -323 -314 l-168 -163 -93 0 c-77 0 -96 3 -107 17 -11 15 -11 16 1 6
9 -9 46 -13 103 -13 l89 0 231 223 c127 122 272 261 321 309 50 48 93 88 96
88 3 0 -65 -69 -150 -153z m2325 93 c0 -20 -6 -26 -26 -28 -30 -4 -46 22 -28
45 20 23 54 12 54 -17z m-3356 -22 c-10 -18 -8 -24 11 -40 15 -13 18 -18 7
-18 -23 0 -40 27 -33 55 4 14 11 25 17 25 6 0 5 -8 -2 -22z m2802 -19 c11 -11
18 -24 14 -27 -4 -4 -11 1 -16 11 -14 24 -48 21 -59 -5 l-9 -23 0 22 c-1 20
21 42 42 43 4 0 16 -9 28 -21z m-203 -1 c20 -20 13 -32 -8 -13 -11 10 -28 15
-40 12 -11 -3 -18 -1 -14 4 8 13 48 11 62 -3z m368 -3 c18 -14 17 -15 -7 -6
-21 8 -65 6 -70 -3 0 0 -3 -32 -6 -71 -7 -91 -13 -96 -13 -12 0 54 4 71 20 87
24 24 49 25 76 5z m-3968 -7 c29 -29 -7 -86 -47 -73 -26 8 -38 50 -21 70 15
18 51 20 68 3z m4177 -8 c3 -6 -1 -7 -9 -4 -18 7 -21 14 -7 14 6 0 13 -4 16
-10z m-1545 -370 c-157 -153 -289 -279 -295 -279 -5 -1 21 30 60 67 38 37 169
163 289 280 121 116 222 212 225 212 3 0 -122 -126 -279 -280z m1303 168 c36
-43 4 -108 -54 -108 -71 0 -92 104 -26 130 29 11 58 3 80 -22z m-3020 -115
c66 -65 142 -139 169 -165 l48 -47 0 -92 c0 -69 4 -97 15 -109 22 -25 9 -52
-24 -48 -30 4 -40 32 -18 56 10 12 15 44 17 102 l2 85 -168 163 -168 162 -57
0 -57 0 -328 -323 c-309 -305 -330 -323 -358 -318 l-31 5 33 6 c25 4 68 41
195 165 90 88 235 231 324 318 l161 157 62 0 62 0 121 -117z m130 87 l34 -29
12 25 c19 41 74 12 57 -31 -10 -26 -73 -11 -113 27 -27 27 -35 29 -48 18 -9
-7 -14 -19 -11 -27 3 -8 1 -11 -4 -8 -22 13 -1 55 27 55 7 0 28 -13 46 -30z
m2205 8 c16 -16 15 -43 -3 -58 -9 -8 -15 -8 -15 -2 0 6 6 12 13 15 9 3 9 9 1
23 -14 25 -29 28 -47 9 -22 -21 -30 -19 -17 5 12 22 49 27 68 8z m450 -40 c2
-16 -3 -28 -12 -31 -13 -5 -14 -3 -4 13 10 16 10 23 -4 36 -24 24 -61 9 -55
-22 2 -13 0 -24 -4 -24 -18 0 -8 49 13 64 19 13 25 14 43 2 11 -7 21 -25 23
-38z m-344 26 c19 -18 20 -33 5 -54 -9 -12 -10 -11 -6 6 5 25 -9 54 -27 54 -7
0 -20 -6 -30 -13 -16 -12 -17 -17 -6 -38 12 -22 12 -23 -3 -10 -10 7 -17 19
-17 27 0 19 29 44 50 44 10 0 26 -7 34 -16z m114 4 c14 -14 16 -44 3 -52 -4
-3 -6 6 -3 19 3 19 -1 25 -21 30 -14 4 -31 4 -36 0 -14 -8 -14 -52 -1 -58 6
-3 5 -4 -2 -3 -18 3 -22 44 -8 62 15 17 52 18 68 2z m-428 -169 c9 -16 8 -25
-4 -42 -14 -21 -11 -26 92 -126 59 -57 96 -96 82 -85 -14 10 -62 54 -107 98
-45 44 -97 84 -115 90 -26 9 -34 17 -36 40 -4 33 10 46 50 46 17 0 31 -7 38
-21z m-1885 -17 c-3 -3 -11 0 -18 7 -9 10 -8 11 6 5 10 -3 15 -9 12 -12z
m2210 -89 c3 -8 0 -22 -6 -31 -9 -15 -10 -15 -4 2 4 15 -9 35 -52 79 l-58 60
57 -48 c31 -26 59 -54 63 -62z m-2115 -95 c-3 -2 -48 42 -100 97 l-95 100 100
-97 c54 -54 97 -99 95 -100z m105 -23 c3 -11 1 -45 -4 -75 l-9 -55 -1 76 -1
76 -85 78 c-47 42 -85 82 -85 88 0 18 180 -166 185 -188z m2239 189 c20 -8 21
-53 1 -60 -8 -4 -26 -3 -39 0 -18 4 -24 12 -21 26 8 39 23 48 59 34z m-122
-127 c-61 -62 -62 -63 -62 -118 0 -64 -22 -94 -62 -86 -22 4 -22 4 3 6 39 2
49 20 49 86 l0 60 57 56 c80 77 92 74 15 -4z m-338 -131 c74 -70 103 -81 138
-49 10 9 18 11 18 6 0 -27 -57 -46 -88 -29 -22 12 -252 235 -252 245 0 3 26
-20 58 -50 31 -31 88 -86 126 -123z m457 97 c-24 -34 -76 -83 -87 -83 -5 0 16
25 46 55 61 61 71 68 41 28z m62 -18 c4 3 4 2 1 -2 -3 -5 -10 -8 -15 -8 -5 0
-9 -4 -10 -10 0 -5 -8 -18 -16 -27 -15 -17 -5 -26 11 -10 4 4 13 7 19 7 7 0
13 6 13 13 2 22 4 23 14 17 8 -5 7 -11 -1 -21 -6 -8 -8 -14 -3 -14 13 0 -16
-25 -29 -25 -7 -1 -11 -6 -10 -11 1 -6 -4 -11 -12 -11 -8 0 -14 3 -13 6 0 3 0
12 -1 20 -1 15 -15 7 -17 -10 -3 -19 -4 -20 -15 -13 -7 4 -1 16 15 33 18 19
23 30 16 41 -9 13 -10 13 -10 -1 0 -8 -15 -28 -32 -45 -27 -23 -29 -24 -10 -3
12 14 19 29 15 32 -4 4 9 21 28 37 28 24 36 26 45 15 6 -8 14 -13 17 -10z
m-1329 -52 c9 -23 -34 -66 -57 -57 -25 9 -21 29 9 53 32 25 40 26 48 4z m1380
9 c3 -5 -1 -9 -9 -9 -8 0 -12 4 -9 9 3 4 7 8 9 8 2 0 6 -4 9 -8z m11 -42 c-10
-11 -23 -20 -29 -20 -6 0 0 9 14 20 32 25 38 25 15 0z m53 -17 c-10 -2 -26 -2
-35 0 -10 3 -2 5 17 5 19 0 27 -2 18 -5z m-2109 -115 c-72 -65 -76 -67 -127
-68 -52 0 -55 2 -118 62 -35 33 -64 64 -64 68 0 3 29 -22 64 -57 63 -62 66
-63 119 -63 53 0 54 0 123 73 38 39 71 68 73 63 2 -5 -29 -40 -70 -78z m335
-7 c-2 -3 -12 3 -22 13 -16 17 -16 18 5 5 12 -7 20 -15 17 -18z m160 -23 c8
-14 7 -21 -6 -34 -30 -30 -75 9 -48 42 16 18 39 15 54 -8z"/>
<path d="M1370 4540 c0 -15 5 -20 18 -18 9 2 17 10 17 18 0 8 -8 16 -17 18
-13 2 -18 -3 -18 -18z"/>
<path d="M1662 4543 c2 -10 10 -18 18 -18 8 0 16 8 18 18 2 12 -3 17 -18 17
-15 0 -20 -5 -18 -17z"/>
<path d="M1952 4543 c5 -26 38 -29 38 -4 0 15 -6 21 -21 21 -14 0 -19 -5 -17
-17z"/>
<path d="M2242 4543 c2 -10 10 -18 18 -18 8 0 16 8 18 18 2 12 -3 17 -18 17
-15 0 -20 -5 -18 -17z"/>
<path d="M2612 4438 c-7 -7 -12 -21 -12 -33 0 -44 60 -63 80 -26 24 45 -33 94
-68 59z"/>
<path d="M3068 4333 c-28 -7 -34 -51 -10 -75 44 -45 109 16 67 62 -18 20 -25
22 -57 13z"/>
<path d="M2892 4168 c-26 -26 -6 -68 33 -68 43 0 62 50 26 70 -26 13 -44 13
-59 -2z"/>
<path d="M1635 3914 c-21 -21 -19 -51 5 -64 38 -20 76 21 52 56 -13 19 -41 23
-57 8z"/>
<path d="M2062 3908 c-21 -21 -14 -57 13 -70 32 -14 55 3 55 42 0 37 -42 54
-68 28z"/>
<path d="M2462 3908 c-18 -18 -14 -45 10 -62 37 -26 79 14 58 55 -12 21 -50
25 -68 7z"/>
<path d="M3352 3763 c2 -10 10 -18 18 -18 22 0 18 29 -3 33 -14 3 -18 -1 -15
-15z"/>
<path d="M1716 3287 c-25 -18 -15 -63 16 -73 16 -5 27 -1 40 16 16 20 17 25 5
44 -18 26 -37 30 -61 13z"/>
<path d="M1137 3644 c-4 -4 -7 -16 -7 -26 0 -14 6 -19 23 -16 14 2 22 10 22
23 0 20 -25 32 -38 19z"/>
<path d="M2854 3669 c-3 -6 -2 -15 4 -21 13 -13 32 -2 32 18 0 16 -26 19 -36
3z"/>
<path d="M1626 3624 c-11 -29 6 -42 33 -25 12 8 12 12 2 25 -17 20 -27 20 -35
0z"/>
<path d="M1414 3645 c-4 -9 -2 -21 4 -27 16 -16 47 -5 47 17 0 26 -42 34 -51
10z"/>
<path d="M855 3482 c-53 -11 -82 -66 -61 -117 26 -62 89 -74 137 -26 31 31 36
59 17 94 -20 39 -55 57 -93 49z"/>
<path d="M1554 2615 c-4 -9 0 -23 8 -31 20 -20 50 -7 46 20 -4 26 -45 35 -54
11z"/>
<path d="M3530 2940 c-11 -11 -20 -23 -20 -28 0 -18 33 -52 50 -52 45 0 69 69
31 90 -28 14 -38 13 -61 -10z"/>
<path d="M554 2765 c-42 -42 -27 -78 31 -73 57 5 67 29 26 67 l-32 30 -25 -24z"/>
<path d="M2237 2664 c-12 -13 -8 -42 8 -48 25 -9 46 5 43 28 -3 21 -37 34 -51
20z"/>
<path d="M4126 2524 c-9 -8 -16 -22 -16 -29 0 -35 53 -58 78 -33 25 25 2 78
-33 78 -7 0 -21 -7 -29 -16z"/>
<path d="M1297 1063 c-13 -12 -7 -33 8 -33 8 0 15 9 15 20 0 20 -11 26 -23 13z"/>
<path d="M3497 2052 c-22 -24 -21 -35 3 -57 18 -17 21 -17 45 -1 29 19 32 38
9 60 -20 21 -37 20 -57 -2z"/>
<path d="M3317 2023 c-13 -12 -7 -41 10 -47 21 -8 48 17 40 38 -6 16 -38 22
-50 9z"/>
<path d="M4125 1774 c-38 -20 -45 -31 -45 -75 0 -47 33 -79 81 -79 49 0 79 30
79 80 0 36 -28 80 -51 80 -4 0 -13 2 -21 5 -7 3 -26 -2 -43 -11z"/>
<path d="M3401 1622 c-7 -14 -6 -25 5 -40 19 -27 36 -28 57 -4 21 23 21 27 1
46 -21 21 -51 20 -63 -2z"/>
<path d="M2234 1295 c-9 -23 3 -45 26 -45 25 0 37 25 20 45 -16 19 -39 19 -46
0z"/>
<path d="M387 1207 c-3 -8 1 -23 8 -34 11 -14 18 -16 32 -7 28 17 23 48 -8 52
-16 2 -29 -3 -32 -11z"/>
<path d="M3214 1206 c-10 -26 4 -48 28 -44 17 2 23 10 23 28 0 18 -6 26 -23
28 -13 2 -25 -3 -28 -12z"/>
<path d="M4604 1205 c-7 -17 12 -45 31 -45 19 0 36 25 29 44 -8 20 -53 21 -60
1z"/>
<path d="M2244 1175 c-7 -18 3 -35 22 -35 20 0 30 30 13 41 -20 12 -29 11 -35
-6z"/>
<path d="M2002 968 c-27 -27 -6 -68 35 -68 29 0 48 33 33 60 -12 22 -49 27
-68 8z"/>
<path d="M2232 708 c-29 -29 -3 -72 40 -66 19 2 23 9 23 38 0 30 -4 35 -25 38
-14 2 -31 -3 -38 -10z"/>
<path d="M2360 981 c-14 -27 -3 -50 27 -57 34 -9 58 16 49 50 -5 21 -12 26
-36 26 -19 0 -33 -7 -40 -19z"/>
<path d="M4012 738 c-17 -17 -15 -42 6 -61 25 -22 45 -21 67 3 15 17 16 24 7
45 -13 27 -58 35 -80 13z"/>
<path d="M1284 206 c-8 -22 3 -33 18 -18 9 9 9 15 0 24 -9 9 -13 7 -18 -6z"/>
<path d="M3780 335 c-8 -9 -8 -15 -2 -15 12 0 26 19 19 26 -2 2 -10 -2 -17
-11z"/>
<path d="M3787 261 c-10 -14 -10 -14 4 -4 9 7 18 10 21 7 3 -3 8 -1 12 4 9 16
-24 9 -37 -7z"/>
<path d="M1630 4732 c0 -20 39 -42 72 -42 31 0 68 23 68 43 0 4 -31 7 -70 7
-38 0 -70 -4 -70 -8z"/>
<path d="M2540 4724 c0 -31 20 -54 48 -54 34 0 52 16 52 47 0 21 -4 23 -50 23
-39 0 -50 -4 -50 -16z"/>
<path d="M2950 4716 c0 -30 22 -49 52 -44 18 2 24 10 26 36 3 31 2 32 -37 32
-36 0 -41 -3 -41 -24z"/>
<path d="M3982 4708 c2 -25 8 -34 26 -36 13 -2 25 3 28 12 5 12 21 16 68 16
57 0 86 11 86 32 0 4 -48 8 -106 8 l-105 0 3 -32z"/>
<path d="M4210 4649 c-47 -49 -102 -95 -125 -106 l-40 -18 -3 -238 c-2 -180 1
-242 10 -255 7 -9 65 -68 129 -129 l117 -113 195 0 c195 0 247 8 247 36 0 6
-7 14 -15 18 -8 3 -15 11 -14 18 0 10 2 10 6 1 9 -24 23 -13 23 17 0 28 -3 30
-36 30 -25 0 -33 -4 -28 -12 6 -10 4 -10 -7 0 -9 9 -64 12 -197 12 l-184 0
-84 82 -84 82 0 140 0 141 185 185 c102 102 185 188 185 192 0 5 -22 8 -48 8
l-48 0 -136 -136 c-92 -92 -140 -134 -149 -128 -10 6 -9 9 3 13 20 8 258 231
258 242 0 5 -17 8 -37 8 -34 -2 -47 -12 -123 -90z"/>
<path d="M4483 4706 c-37 -36 -41 -51 -17 -60 25 -9 30 -8 59 22 24 23 26 24
16 5 -18 -34 -48 -47 -79 -34 -26 11 -34 5 -179 -137 l-153 -148 0 -141 0
-141 82 -76 82 -77 223 2 223 3 0 58 0 58 -67 0 -66 0 -64 63 -63 64 0 97 0
97 98 96 c53 52 89 93 80 90 -15 -5 -16 -4 -5 13 9 16 13 17 17 6 8 -23 70 38
70 69 0 46 -32 28 -145 -80 -151 -145 -167 -155 -257 -155 -45 -1 -80 -6 -90
-14 -26 -19 -22 -27 8 -15 34 12 58 5 74 -25 16 -31 6 -72 -21 -87 -45 -24
-113 37 -89 80 5 10 6 21 3 25 -3 3 2 15 12 26 15 17 31 20 94 20 59 0 84 5
110 21 34 21 251 227 251 238 0 3 -7 15 -15 26 -15 18 -18 17 -78 -41 -34 -33
-74 -68 -89 -77 -18 -11 -28 -26 -28 -42 0 -25 -33 -55 -60 -55 -9 0 -27 11
-39 24 -47 50 5 113 71 88 37 -13 63 -2 122 53 31 29 36 39 25 46 -11 7 -10 9
6 9 20 1 55 22 55 34 0 3 -22 6 -50 6 -51 0 -64 -12 -37 -39 10 -10 9 -11 -5
-6 -10 4 -18 16 -18 26 0 29 -30 22 -67 -15z m-85 -445 c8 -4 12 -19 10 -32
-2 -19 -9 -24 -33 -24 -21 0 -31 5 -33 18 -8 40 22 60 56 38z m-96 -51 c-18
-4 -43 -16 -55 -26 -19 -16 -19 -15 2 9 17 19 33 27 55 26 l31 -1 -33 -8z
m138 -52 c37 -40 9 -108 -45 -108 -36 0 -65 28 -65 62 0 64 67 91 110 46z"/>
<path d="M4362 4148 c-7 -7 -12 -21 -12 -33 0 -44 60 -63 80 -26 14 27 13 37
-6 55 -18 19 -45 21 -62 4z"/>
<path d="M4680 4722 c0 -10 5 -23 12 -30 7 -7 20 -12 30 -12 13 0 18 8 18 30
0 27 -3 30 -30 30 -22 0 -30 -5 -30 -18z"/>
<path d="M65 4660 c-16 -16 -37 -32 -47 -36 -13 -4 -18 -15 -18 -45 0 -21 4
-39 10 -39 12 0 150 129 150 141 0 5 -15 9 -33 9 -24 0 -41 -8 -62 -30z"/>
<path d="M270 4575 c-15 -18 2 -45 30 -45 23 0 34 28 19 46 -15 18 -33 18 -49
-1z"/>
<path d="M4398 4579 c-18 -10 -23 -35 -12 -63 9 -24 61 -21 74 5 14 25 6 49
-15 49 -8 0 -15 5 -15 10 0 13 -10 12 -32 -1z"/>
<path d="M4607 4472 l-117 -117 0 -91 0 -91 55 -54 c31 -30 60 -54 64 -54 5 0
36 26 70 58 51 49 61 64 61 93 0 19 -3 34 -7 34 -5 0 -29 -21 -55 -46 -27 -26
-48 -42 -48 -37 0 5 25 33 55 61 l55 52 0 105 c0 58 -3 105 -7 105 -4 0 -30
-19 -57 -41 l-51 -41 58 57 c47 47 57 63 57 91 0 19 -3 34 -8 34 -4 0 -60 -53
-125 -118z m33 -112 c16 -16 25 -18 40 -10 11 6 20 8 20 6 0 -3 -10 -10 -21
-17 -17 -9 -26 -7 -49 9 l-27 21 -13 -25 c-9 -16 -17 -21 -24 -14 -6 6 -3 16
9 30 23 25 40 25 65 0z"/>
<path d="M665 4353 c-49 -47 -178 -172 -286 -277 -107 -105 -237 -231 -287
-280 -86 -82 -92 -91 -92 -128 0 -22 4 -38 9 -36 11 4 138 126 494 474 251
247 267 264 267 298 0 20 -3 36 -7 36 -5 0 -48 -39 -98 -87z"/>
<path d="M4242 4348 c-7 -7 -12 -21 -12 -33 0 -29 19 -45 52 -45 25 0 48 23
48 49 0 33 -63 54 -88 29z"/>
<path d="M885 4301 c-62 -27 -78 -103 -31 -150 58 -57 156 -17 156 64 0 62
-69 110 -125 86z m84 -34 c39 -48 11 -120 -47 -120 -62 0 -96 70 -55 115 19
21 85 25 102 5z"/>
<path d="M887 4239 c-20 -27 -10 -58 19 -65 30 -8 54 11 54 40 0 46 -48 62
-73 25z"/>
<path d="M4677 4112 c-26 -26 -47 -51 -47 -55 0 -9 72 -9 94 -1 12 4 16 20 16
55 0 27 -4 49 -8 49 -4 0 -29 -22 -55 -48z"/>
<path d="M3973 3914 c5 -49 18 -64 55 -64 36 0 62 18 62 43 0 33 -19 47 -62
47 -21 0 -38 5 -38 10 0 6 -5 10 -11 10 -8 0 -10 -15 -6 -46z"/>
<path d="M4675 3683 c-60 -5 -79 -17 -64 -44 5 -10 15 -19 21 -19 7 0 21 -9
33 -20 18 -17 25 -18 48 -7 23 10 27 18 27 55 0 23 -3 41 -7 40 -5 -1 -30 -3
-58 -5z"/>
<path d="M4714 3575 c-8 -19 2 -45 16 -45 5 0 10 14 10 30 0 31 -16 41 -26 15z"/>
<path d="M2 3144 c3 -54 15 -63 49 -35 20 16 22 23 14 47 -8 21 -18 30 -38 32
-28 3 -28 3 -25 -44z"/>
<path d="M4715 3160 c-8 -13 4 -50 16 -50 5 0 9 14 9 30 0 30 -13 40 -25 20z"/>
<path d="M42 2843 l-42 -27 0 -69 c0 -67 1 -69 23 -63 12 3 48 6 81 6 57 0 58
1 52 24 -3 14 -2 28 4 31 5 3 7 0 4 -8 -8 -23 24 -49 46 -37 23 12 29 30 20
55 -11 29 -106 115 -128 115 -10 0 -37 -12 -60 -27z"/>
<path d="M4456 2295 c-115 -103 -116 -105 -116 -223 l0 -98 109 -107 c59 -59
115 -107 124 -107 9 0 49 30 91 68 l74 67 0 160 1 160 -74 64 c-120 105 -110
104 -209 16z m129 -195 c15 -16 17 -26 9 -48 -16 -45 -88 -43 -100 4 -13 52
54 85 91 44z"/>
<path d="M4531 2086 c-15 -18 -3 -48 18 -44 21 4 27 44 7 51 -8 3 -19 0 -25
-7z"/>
<path d="M0 2050 c0 -126 4 -230 8 -230 5 0 16 8 25 18 15 16 17 46 17 214 0
176 -2 196 -18 211 -10 10 -22 17 -25 17 -4 0 -7 -103 -7 -230z"/>
<path d="M4711 1432 c-7 -13 -6 -23 1 -30 19 -19 28 -14 28 18 0 34 -14 39
-29 12z"/>
<path d="M214 1046 c-16 -12 -16 -18 -6 -40 13 -29 43 -34 62 -11 26 31 -22
75 -56 51z"/>
<path d="M4630 659 c-52 -50 -181 -176 -286 -280 -187 -185 -192 -189 -233
-189 -23 0 -40 -4 -37 -9 3 -5 -2 -19 -13 -32 -16 -20 -21 -21 -47 -11 -16 6
-66 11 -112 9 -102 -3 -122 -19 -122 -98 l0 -49 50 0 c43 0 55 4 74 27 23 27
25 27 135 25 l111 -3 83 78 c45 42 173 166 285 275 112 109 207 198 212 198 6
0 10 34 10 75 0 41 -3 75 -7 75 -5 0 -51 -41 -103 -91z"/>
<path d="M4442 314 l-282 -275 -115 2 c-111 1 -145 -7 -145 -32 0 -5 69 -9
153 -9 l152 0 161 158 c88 86 209 204 267 261 94 91 107 108 107 137 0 19 -3
34 -7 34 -5 -1 -135 -124 -291 -276z"/>
<path d="M4699 472 c-8 -9 -118 -117 -242 -240 -125 -123 -227 -225 -227 -227
0 -3 15 -5 33 -5 29 0 55 23 242 210 116 115 216 210 223 210 7 0 12 14 12 35
0 38 -15 44 -41 17z"/>
<path d="M4523 211 c-112 -109 -203 -201 -203 -204 0 -4 15 -7 33 -7 30 0 48
14 148 116 124 126 150 144 204 144 l35 0 0 75 c0 41 -3 75 -7 75 -5 -1 -99
-90 -210 -199z"/>
<path d="M4528 125 c-65 -63 -118 -117 -118 -120 0 -3 25 -5 55 -5 38 0 55 4
55 13 0 7 19 32 43 55 40 39 46 42 100 42 54 0 57 1 57 25 0 14 5 25 10 25 6
0 10 18 10 40 l0 40 -47 0 c-47 -1 -49 -2 -165 -115z"/>
<path d="M4661 101 c-58 -6 -66 -9 -97 -46 -18 -22 -34 -43 -34 -47 0 -16 36
-7 48 12 9 15 22 20 50 19 l37 -2 -39 -6 c-61 -9 -58 -31 3 -31 39 0 51 4 51
15 0 10 10 15 30 15 28 0 30 2 30 40 0 22 -3 39 -7 38 -5 0 -37 -4 -72 -7z"/>
<path d="M1426 34 c-25 -25 -19 -34 24 -34 44 0 55 21 21 40 -25 13 -27 13
-45 -6z"/>
<path d="M1928 39 c-31 -18 -22 -39 17 -39 36 0 46 15 23 38 -14 14 -18 14
-40 1z"/>
<path d="M2578 22 c-31 -6 -19 -22 17 -22 19 0 35 4 35 9 0 11 -29 18 -52 13z"/>
<path d="M4700 10 c0 -5 9 -10 20 -10 11 0 20 5 20 10 0 6 -9 10 -20 10 -11 0
-20 -4 -20 -10z"/>
</g>
</svg>
